<?xml version="1.0" encoding="UTF-8" standalone="no"?>
<!DOCTYPE svg PUBLIC "-//W3C//DTD SVG 1.1//EN" "http://www.w3.org/Graphics/SVG/1.1/DTD/svg11.dtd">
<svg width="100%" height="100%" viewBox="0 0 3489 1471" version="1.1" xmlns="http://www.w3.org/2000/svg" xmlns:xlink="http://www.w3.org/1999/xlink" xml:space="preserve" xmlns:serif="http://www.serif.com/" style="fill-rule:evenodd;clip-rule:evenodd;stroke-linejoin:round;stroke-miterlimit:2;">
    <g transform="matrix(1,0,0,1,94.724,95.0231)">
        <g transform="matrix(1,0,0,1,238.021,-354.167)">
            <g transform="matrix(0.618929,0.785447,-0.785447,0.618929,1222.41,-820.611)">
                <path d="M-38.344,1868.15L-26.144,1777.73C-26.144,1777.73 66.736,1827.79 74.801,1831.24C357.704,1952.23 741.901,2005.3 1139.82,1886.67C1738.76,1708.11 1985.03,1404.22 2210.32,1051C2391.04,767.666 2703.49,382.815 3085.56,169.438C3197.09,107.153 3175.93,55.443 3175.93,55.443C3175.93,55.443 3126.04,-31.745 3068.89,3.032C2677.86,240.99 2374.38,717.281 2193.66,1060.45C1968.36,1488.27 1722.09,1856.33 1123.16,2072.6C713.099,2220.67 245.618,2104.89 -39.463,1948.84C-46.491,1944.99 -31.452,1872.09 -38.344,1868.15" style="fill:rgb(230,181,21);"/>
            </g>
        </g>
    </g>
</svg>
