<?xml version="1.0" standalone="no"?>
<svg xmlns:xlink="http://www.w3.org/1999/xlink" id="wave" style="transform:rotate(0deg); transition: 0.3s" viewBox="0 0 1440 100" version="1.1" xmlns="http://www.w3.org/2000/svg"><defs><linearGradient id="sw-gradient-0" x1="0" x2="0" y1="1" y2="0"><stop stop-color="rgba(255, 203, 4, 1)" offset="0%"/><stop stop-color="rgba(255, 179, 11, 1)" offset="100%"/></linearGradient></defs><path style="transform:translate(0, 0px); opacity:1" fill="url(#sw-gradient-0)" d="M0,10L60,21.7C120,33,240,57,360,66.7C480,77,600,73,720,66.7C840,60,960,50,1080,43.3C1200,37,1320,33,1440,28.3C1560,23,1680,17,1800,15C1920,13,2040,17,2160,20C2280,23,2400,27,2520,28.3C2640,30,2760,30,2880,30C3000,30,3120,30,3240,28.3C3360,27,3480,23,3600,31.7C3720,40,3840,60,3960,60C4080,60,4200,40,4320,35C4440,30,4560,40,4680,46.7C4800,53,4920,57,5040,61.7C5160,67,5280,73,5400,71.7C5520,70,5640,60,5760,56.7C5880,53,6000,57,6120,56.7C6240,57,6360,53,6480,43.3C6600,33,6720,17,6840,18.3C6960,20,7080,40,7200,40C7320,40,7440,20,7560,15C7680,10,7800,20,7920,33.3C8040,47,8160,63,8280,63.3C8400,63,8520,47,8580,38.3L8640,30L8640,100L8580,100C8520,100,8400,100,8280,100C8160,100,8040,100,7920,100C7800,100,7680,100,7560,100C7440,100,7320,100,7200,100C7080,100,6960,100,6840,100C6720,100,6600,100,6480,100C6360,100,6240,100,6120,100C6000,100,5880,100,5760,100C5640,100,5520,100,5400,100C5280,100,5160,100,5040,100C4920,100,4800,100,4680,100C4560,100,4440,100,4320,100C4200,100,4080,100,3960,100C3840,100,3720,100,3600,100C3480,100,3360,100,3240,100C3120,100,3000,100,2880,100C2760,100,2640,100,2520,100C2400,100,2280,100,2160,100C2040,100,1920,100,1800,100C1680,100,1560,100,1440,100C1320,100,1200,100,1080,100C960,100,840,100,720,100C600,100,480,100,360,100C240,100,120,100,60,100L0,100Z"/></svg>